A Christmas Carol TS XViD-IMAGiNE                                
Infomation

Ripper ...........: IMAGiNE                                      IMDB Rating.......:5.8/10                            
Video Codec.......: XVID                                         Release Date......:01/10/09
Audio Codec.......:MP3                                           Theatre Date......:14/08/09
Audio Bitrate.....:128                                           Runtime...........:1h 25mn
Subtitles.........:NIL                                           Language..........:ENGLISH
Resolution...... 720 x 352                                       IMDB URL..........:http://www.imdb.com/title/tt1067106/


DETAILS:
Video
ID                               : 0
Format                           : MPEG-4 Visual
Format profile                   : AdvancedSimple@L5
Format settings, BVOP            : Yes
Format settings, QPel            : No
Format settings, GMC             : No warppoints
Format settings, Matrix          : Default (H.263)
Muxing mode                      : Packed bitstream
Codec ID                         : XVID
Codec ID/Hint                    : XviD
Duration                         : 1h 25mn
Bit rate                         : 957 Kbps
Width                            : 720 pixels
Height                           : 352 pixels
Display aspect ratio             : 2.045
Frame rate                       : 23.976 fps
Resolution                       : 24 bits
Colorimetry                      : 4:2:0
Scan type                        : Progressive
Bits/(Pixel*Frame)               : 0.158
Stream size                      : 585 MiB (87%)
Writing library                  : XviD 1.2.1 (UTC 2008-12-04)

Audio
ID                               : 1
Format                           : MPEG Audio
Format version                   : Version 1
Format profile                   : Layer 3
Codec ID                         : 55
Codec ID/Hint                    : MP3
Duration                         : 1h 25mn
Bit rate mode                    : Constant
Bit rate                         : 128 Kbps
Channel(s)                       : 2 channels
Sampling rate                    : 48.0 KHz
Resolution                       : 16 bits
Stream size                      : 78.2 MiB (12%)
Alignment                        : Aligned on interleaves
Interleave, duration             : 42 ms (1.00 video frame)
Interleave, preload duration     : 408 ms



note

IMAGiNE bringing you another release.....
This is a Spanish video (Thx Whoever)  muxed with our own audio , for the video just lightened it up a bit as it was very dark (and still is some wat) not going to get into much details about it.

screens 
http://bayimg.com/image/faelkaacm.jpg
http://bayimg.com/image/faelmaacm.jpg
http://bayimg.com/image/faeloaacm.jpg 
http://moviefox.org